<?xml version="1.0" ?><svg style="enable-background:new 0 0 48 48;" version="1.1" viewBox="0 0 48 48" xml:space="preserve" xmlns="http://www.w3.org/2000/svg" xmlns:xlink="http://www.w3.org/1999/xlink"><g id="Padding__x26__Artboard"/><g id="Icons"><path d="M24,12.88989c-6.40723,0-11.62012,4.75537-11.62012,10.6001   c0,3.3584,1.74609,6.51758,4.68994,8.51953l-1.854,2.54492c-0.08838,0.12109-0.08984,0.28516-0.00342,0.40723   c0.06689,0.09473,0.17432,0.14844,0.28613,0.14844c0.03271,0,0.06592-0.00391,0.09863-0.01367l4.94287-1.47461   c1.12695,0.31738,2.29102,0.47754,3.45996,0.47754c6.40723,0,11.62012-4.75928,11.62012-10.60938   C35.62012,17.64526,30.40723,12.88989,24,12.88989z M19.20404,23.49487c0-0.53717,0.43549-0.9726,0.97266-0.9726   s0.9726,0.43542,0.9726,0.9726s-0.43542,0.97266-0.9726,0.97266S19.20404,24.03204,19.20404,23.49487z M23.02722,23.49487   c0-0.53717,0.43549-0.9726,0.97266-0.9726s0.9726,0.43542,0.9726,0.9726s-0.43542,0.97266-0.9726,0.97266   S23.02722,24.03204,23.02722,23.49487z M27.823,24.46753c-0.53711,0-0.9726-0.43549-0.9726-0.97266s0.43549-0.9726,0.9726-0.9726   c0.53717,0,0.97266,0.43542,0.97266,0.9726S28.36017,24.46753,27.823,24.46753z" style="fill:#303030;"/></g></svg>